<svg version="1.1" id="Layer_1" xmlns="http://www.w3.org/2000/svg" xmlns:xlink="http://www.w3.org/1999/xlink" x="0px" y="0px"
	 width="100%" viewBox="0 0 183 183" enable-background="new 0 0 183 183" xml:space="preserve">
<path fill="#DD1010" opacity="1.000000" stroke="none" 
	d="
M1.000000,96.000000 
	C1.000000,93.629440 1.000000,91.258888 1.356967,88.267326 
	C1.931736,84.550865 2.149538,81.455406 2.387669,77.977371 
	C2.828698,75.675362 3.157182,73.730232 3.683784,71.840317 
	C13.187944,37.730907 34.273289,14.850550 68.622276,4.746118 
	C71.530518,3.890601 74.212761,2.266853 77.000000,1.000000 
	C84.354256,1.000000 91.708504,1.000000 99.688843,1.389603 
	C103.708549,2.339349 107.132690,2.757906 110.491112,3.481479 
	C145.063522,10.930125 167.769226,31.699604 179.295639,64.952950 
	C180.912766,69.618317 182.434250,74.316826 184.000000,79.000000 
	C184.000000,85.687645 184.000000,92.375290 183.731110,99.836990 
	C182.805878,104.145081 182.279587,107.709091 181.473099,111.208527 
	C173.199203,147.109726 151.290817,170.082748 115.933495,180.365448 
	C113.170364,181.169037 110.639053,182.769760 108.000000,184.000000 
	C100.312424,184.000000 92.624847,184.000000 84.325127,183.610352 
	C77.616165,181.958267 71.403648,181.093185 65.444458,179.358078 
	C48.260685,174.354706 34.272873,164.437668 22.712431,150.851654 
	C11.139355,137.250793 4.652637,121.494484 2.399675,103.698647 
	C2.107043,100.959862 1.553522,98.479927 1.000000,96.000000 
M140.460648,123.609779 
	C149.848511,112.242287 154.972763,99.252419 154.969086,84.448997 
	C154.965729,70.915909 150.577179,58.723740 142.357468,48.089394 
	C139.654968,44.592999 135.747421,42.028015 131.951385,38.810661 
	C131.290573,38.107487 130.629761,37.404312 129.703766,35.997349 
	C124.027763,32.994553 118.668007,28.748039 112.619537,27.210037 
	C89.714859,21.385847 69.158943,25.383738 51.621017,42.662758 
	C32.359222,61.640202 29.496702,93.853462 43.457630,116.088234 
	C46.173218,120.413193 49.150009,124.574142 51.342613,129.187943 
	C50.582977,131.251297 49.878166,133.337051 49.046383,135.370911 
	C48.379589,137.001328 47.558693,138.568726 46.667252,140.458618 
	C50.108192,141.365692 46.708725,143.379181 45.998989,144.993515 
	C47.315926,146.165497 48.884552,146.928864 49.397179,148.139420 
	C50.786766,151.420853 53.351952,151.195663 56.042404,150.950058 
	C59.164276,150.665054 62.276634,150.260406 65.402321,150.035706 
	C71.884125,149.569778 78.422699,149.553879 84.842293,148.663437 
	C90.574760,147.868301 96.053879,146.785095 101.799385,149.020386 
	C103.431778,149.655487 105.945381,147.974472 108.069267,147.409744 
	C111.024803,146.623886 114.753029,144.394806 116.802773,145.436203 
	C121.395340,147.769501 125.286812,147.783051 129.562729,145.539795 
	C134.439407,142.981354 144.246246,145.801910 141.367920,134.737778 
	C141.310165,134.515823 141.825043,134.185593 141.833405,133.898895 
	C141.874969,132.474365 142.066635,130.997421 141.770218,129.633530 
	C141.353088,127.714195 140.552963,125.878090 140.460648,123.609779 
z"/>
<path fill="#E4D7D7" opacity="1.000000" stroke="none" 
	d="
M2.138786,103.957504 
	C4.652637,121.494484 11.139355,137.250793 22.712431,150.851654 
	C34.272873,164.437668 48.260685,174.354706 65.444458,179.358078 
	C71.403648,181.093185 77.616165,181.958267 83.856491,183.610352 
	C56.407784,184.000000 28.815567,184.000000 1.000000,184.000000 
	C1.000000,157.646194 1.000000,131.291748 1.285081,104.468338 
	C1.759704,103.985397 1.949245,103.971451 2.138786,103.957504 
z"/>
<path fill="#E4D7D7" opacity="1.000000" stroke="none" 
	d="
M76.531342,1.000000 
	C74.212761,2.266853 71.530518,3.890601 68.622276,4.746118 
	C34.273289,14.850550 13.187944,37.730907 3.683784,71.840317 
	C3.157182,73.730232 2.828698,75.675362 2.178274,78.127083 
	C1.632367,78.772919 1.316184,78.886459 1.000000,79.000000 
	C1.000000,53.074066 1.000000,27.148134 1.000000,1.000000 
	C26.020456,1.000000 51.041569,1.000000 76.531342,1.000000 
z"/>
<path fill="#E4D7D7" opacity="1.000000" stroke="none" 
	d="
M184.000000,78.531342 
	C182.434250,74.316826 180.912766,69.618317 179.295639,64.952950 
	C167.769226,31.699604 145.063522,10.930125 110.491112,3.481479 
	C107.132690,2.757906 103.708549,2.339349 100.157455,1.389603 
	C127.924187,1.000000 155.848373,1.000000 184.000000,1.000000 
	C184.000000,26.687113 184.000000,52.374897 184.000000,78.531342 
z"/>
<path fill="#E4D7D7" opacity="1.000000" stroke="none" 
	d="
M108.468658,184.000000 
	C110.639053,182.769760 113.170364,181.169037 115.933495,180.365448 
	C151.290817,170.082748 173.199203,147.109726 181.473099,111.208527 
	C182.279587,107.709091 182.805878,104.145081 183.731110,100.305519 
	C184.000000,127.923225 184.000000,155.846451 184.000000,184.000000 
	C158.979584,184.000000 133.958450,184.000000 108.468658,184.000000 
z"/>
<path fill="#DF4141" opacity="1.000000" stroke="none" 
	d="
M1.000000,79.449982 
	C1.316184,78.886459 1.632367,78.772919 2.157945,78.509659 
	C2.149538,81.455406 1.931736,84.550865 1.356967,87.823166 
	C1.000000,85.299988 1.000000,82.599968 1.000000,79.449982 
z"/>
<path fill="#DF4141" opacity="1.000000" stroke="none" 
	d="
M2.399675,103.698647 
	C1.949245,103.971451 1.759704,103.985397 1.285081,103.999680 
	C1.000000,101.629440 1.000000,99.258888 1.000000,96.444168 
	C1.553522,98.479927 2.107043,100.959862 2.399675,103.698647 
z"/>
<path fill="#F8EBEA" opacity="1.000000" stroke="none" 
	d="
M129.968948,36.701141 
	C130.629761,37.404312 131.290573,38.107487 132.154541,39.337978 
	C133.659958,44.933704 134.962204,50.002117 136.182373,55.400253 
	C136.341385,56.333538 136.582474,56.937103 136.799927,57.667068 
	C136.776260,57.793472 137.011093,57.898392 136.994980,58.338463 
	C137.181824,65.366608 135.298203,66.726524 129.567245,64.072823 
	C127.731865,63.222958 125.955833,62.244938 125.000954,61.758076 
	C123.522034,65.354500 122.269264,68.400970 120.710892,71.137505 
	C118.459732,62.651413 116.461716,54.487274 114.583412,46.295692 
	C112.713715,38.141624 111.674988,37.191349 103.881844,39.793598 
	C91.351448,43.977695 79.040237,48.815292 66.531845,53.069286 
	C58.814384,55.693928 53.542099,60.812714 51.479610,68.364128 
	C49.583942,75.304764 47.962574,82.672722 48.226246,89.777992 
	C48.790081,104.972145 57.202446,111.381317 72.033920,108.101540 
	C79.852798,106.372505 87.251923,102.745300 95.097511,100.273293 
	C95.817650,101.987976 96.280846,103.404518 96.510834,105.077240 
	C92.563011,107.420807 88.848396,109.508179 84.955437,111.695778 
	C85.775360,115.289162 86.637901,119.069336 87.155540,122.995209 
	C85.624611,123.507576 84.438576,123.874237 83.227325,123.786591 
	C82.924248,120.903114 82.646378,118.473930 82.368507,116.044754 
	C81.860329,116.024376 81.352158,116.003998 80.843987,115.983620 
	C79.872032,120.036072 78.900078,124.088524 77.531914,128.265350 
	C75.361557,127.908394 73.587418,127.427063 71.990891,126.634583 
	C74.309937,121.814034 76.451378,117.304649 78.920708,112.104790 
	C74.866776,113.036880 71.850868,113.795731 68.807198,114.418968 
	C54.507614,117.347015 44.207214,110.195717 42.635624,96.704941 
	C41.584229,87.679619 42.139946,78.885063 44.801704,69.893188 
	C48.472923,58.856430 55.104141,51.315472 66.130043,47.627014 
	C78.630371,43.445332 90.957008,38.744423 103.725250,34.209816 
	C107.693222,33.946037 112.026482,32.426167 114.691170,33.907597 
	C117.352402,35.387104 118.343155,39.871338 120.214783,43.311363 
	C123.480331,41.098358 126.724640,38.899750 129.968948,36.701141 
z"/>
<path fill="#120A0B" opacity="1.000000" stroke="none" 
	d="
M83.252541,124.240898 
	C84.438576,123.874237 85.624611,123.507576 87.486328,123.084511 
	C92.113403,124.311417 95.693230,127.945442 100.468307,125.041092 
	C100.615700,125.132225 100.962410,125.100548 101.163345,125.431412 
	C104.162254,125.303749 106.960228,124.845230 110.195137,124.552246 
	C115.997108,124.248070 121.362137,123.778374 126.916183,123.551834 
	C128.530899,123.665321 129.956589,123.535652 131.649628,123.350540 
	C132.251541,123.153748 132.586090,123.012390 133.259766,122.895409 
	C135.704773,123.281998 137.810699,123.644196 139.916595,124.006393 
	C140.552963,125.878090 141.353088,127.714195 141.770218,129.633530 
	C142.066635,130.997421 141.874969,132.474365 141.833405,133.898895 
	C141.825043,134.185593 141.310165,134.515823 141.367920,134.737778 
	C144.246246,145.801910 134.439407,142.981354 129.562729,145.539795 
	C125.286812,147.783051 121.395340,147.769501 116.802773,145.436203 
	C114.753029,144.394806 111.024803,146.623886 108.069267,147.409744 
	C105.945381,147.974472 103.431778,149.655487 101.799385,149.020386 
	C96.053879,146.785095 90.574760,147.868301 84.842293,148.663437 
	C78.422699,149.553879 71.884125,149.569778 65.402321,150.035706 
	C62.276634,150.260406 59.164276,150.665054 56.042404,150.950058 
	C53.351952,151.195663 50.786766,151.420853 49.397179,148.139420 
	C48.884552,146.928864 47.315926,146.165497 45.998989,144.993515 
	C46.708725,143.379181 50.108192,141.365692 46.667252,140.458618 
	C47.558693,138.568726 48.379589,137.001328 49.046383,135.370911 
	C49.878166,133.337051 50.582977,131.251297 52.088936,129.074448 
	C55.304836,128.882111 58.495220,130.629700 59.637558,126.535614 
	C63.895096,127.133263 67.930214,123.744102 71.813278,126.945732 
	C73.587418,127.427063 75.361557,127.908394 77.900818,128.292343 
	C80.194809,126.876945 81.723679,125.558922 83.252541,124.240898 
M60.074547,135.062027 
	C60.368702,135.763733 60.662861,136.465424 60.655769,137.731125 
	C60.891644,140.009399 61.127518,142.287674 61.440933,145.314896 
	C62.347393,145.226349 64.165733,145.048752 66.592155,144.863495 
	C67.072243,144.545425 67.552330,144.227371 68.333519,144.425446 
	C68.884621,144.577957 69.435722,144.730484 70.681458,145.066391 
	C71.144112,144.975922 71.606766,144.885468 72.646713,144.781235 
	C73.104843,144.207947 73.562973,143.634659 74.712730,143.216278 
	C76.880142,146.007523 78.986374,145.307022 81.555313,142.970825 
	C81.718071,142.925201 81.880821,142.879578 82.917511,143.054733 
	C84.866463,143.054733 86.815414,143.054733 89.188637,143.054733 
	C88.565651,138.268875 90.188766,133.328812 85.147301,130.738098 
	C83.975510,134.173264 82.994286,137.049789 81.816360,139.336182 
	C81.229301,139.193024 80.642250,139.049850 80.257080,138.223404 
	C80.368759,136.223114 80.480446,134.222809 80.592125,132.222519 
	C78.587540,132.575867 75.514305,129.819839 74.887825,134.182999 
	C74.217110,133.808838 73.546402,133.434677 72.603683,132.379395 
	C70.757256,132.955734 68.910820,133.532059 66.486801,133.908310 
	C65.953796,133.654572 65.420784,133.400833 64.191040,132.999893 
	C62.966614,133.382324 61.742188,133.764771 60.341736,134.532791 
	C60.341736,134.532791 60.678558,134.790085 60.074547,135.062027 
M107.655266,136.960358 
	C108.424690,136.994400 109.194107,137.028458 109.977608,136.994568 
	C109.977608,136.994568 109.933136,137.047928 109.842285,137.826492 
	C111.332260,143.394348 115.904121,144.686142 120.662796,140.530151 
	C121.219582,140.054459 121.776375,139.578781 123.031212,139.070358 
	C123.957146,139.069092 124.883072,139.067825 125.936485,139.808884 
	C128.265228,140.791077 128.574265,140.767944 128.421921,138.732910 
	C128.149338,135.091965 127.463562,131.481918 126.786903,126.703621 
	C125.558823,128.441193 125.052719,129.157257 124.009888,129.860199 
	C123.480225,129.863525 122.950569,129.866867 121.923332,129.046555 
	C121.153458,129.575073 119.764992,130.055283 119.719292,130.640350 
	C119.505547,133.377487 119.661819,136.143524 118.863869,138.960876 
	C116.589577,138.298874 114.315285,137.636871 112.191727,136.293823 
	C111.499611,134.192108 119.379517,135.991592 114.234047,131.193558 
	C114.294685,130.260483 114.355331,129.327408 114.415977,128.394333 
	C113.549698,128.532333 112.683418,128.670334 111.078461,128.938339 
	C108.732491,129.138290 106.386513,129.338226 103.170227,129.713745 
	C102.407204,130.136826 100.956154,130.620087 100.987083,130.973709 
	C101.313202,134.702454 101.875740,138.410522 102.354782,141.987976 
	C104.094574,140.045517 105.489510,138.488083 107.655266,136.960358 
M94.224205,136.132507 
	C94.582222,134.239166 94.940231,132.345825 95.430771,129.751663 
	C93.476784,130.047913 91.477112,130.351074 89.958641,130.581284 
	C91.366508,134.831223 92.560028,138.434082 93.753548,142.036957 
	C93.947792,141.966843 94.142036,141.896729 94.336281,141.826599 
	C94.336281,140.193893 94.336281,138.561188 94.224205,136.132507 
z"/>
<path fill="#A10304" opacity="1.000000" stroke="none" 
	d="
M59.326305,126.399208 
	C58.495220,130.629700 55.304836,128.882111 52.420792,128.885849 
	C49.150009,124.574142 46.173218,120.413193 43.457630,116.088234 
	C29.496702,93.853462 32.359222,61.640202 51.621017,42.662758 
	C69.158943,25.383738 89.714859,21.385847 112.619537,27.210037 
	C118.668007,28.748039 124.027763,32.994553 129.836365,36.349243 
	C126.724640,38.899750 123.480331,41.098358 120.214783,43.311363 
	C118.343155,39.871338 117.352402,35.387104 114.691170,33.907597 
	C112.026482,32.426167 107.693222,33.946037 103.330963,33.998535 
	C85.306656,30.716818 69.990623,34.813820 56.994625,46.624538 
	C50.039829,52.945026 44.404198,60.265224 42.595512,70.180351 
	C37.166519,85.373543 38.875309,99.808220 47.013458,113.126328 
	C50.097801,118.173866 55.163643,122.010590 59.326305,126.399208 
z"/>
<path fill="#9E0203" opacity="1.000000" stroke="none" 
	d="
M140.188629,123.808090 
	C137.810699,123.644196 135.704773,123.281998 133.321106,122.558273 
	C133.827194,120.927185 134.495712,119.566856 135.412415,118.401825 
	C147.087631,103.563950 148.465652,86.835670 143.810043,69.343468 
	C142.711914,65.217529 139.338058,61.697281 137.011093,57.898392 
	C137.011093,57.898392 136.776260,57.793472 136.868744,57.333748 
	C136.728973,56.272858 136.496719,55.671692 136.264450,55.070530 
	C134.962204,50.002117 133.659958,44.933704 132.374329,39.451206 
	C135.747421,42.028015 139.654968,44.592999 142.357468,48.089394 
	C150.577179,58.723740 154.965729,70.915909 154.969086,84.448997 
	C154.972763,99.252419 149.848511,112.242287 140.188629,123.808090 
z"/>
<path fill="#DC1817" opacity="1.000000" stroke="none" 
	d="
M94.840569,99.975151 
	C87.251923,102.745300 79.852798,106.372505 72.033920,108.101540 
	C57.202446,111.381317 48.790081,104.972145 48.226246,89.777992 
	C47.962574,82.672722 49.583942,75.304764 51.479610,68.364128 
	C53.542099,60.812714 58.814384,55.693928 66.531845,53.069286 
	C79.040237,48.815292 91.351448,43.977695 103.881844,39.793598 
	C111.674988,37.191349 112.713715,38.141624 114.583412,46.295692 
	C116.461716,54.487274 118.459732,62.651413 120.707741,71.108963 
	C121.010201,71.390358 121.005096,71.469582 120.591942,71.540970 
	C114.099205,73.007851 108.019623,74.403351 101.584366,75.745392 
	C100.522415,75.818329 99.816139,75.944725 98.871140,76.035812 
	C98.281555,76.060463 98.042641,76.256706 97.657120,76.694412 
	C97.216171,76.836563 97.033783,76.873497 96.514374,76.960220 
	C96.360817,79.360237 96.544273,81.710464 96.793808,84.477875 
	C96.951935,86.580208 97.043983,88.265358 97.053268,90.370987 
	C97.052025,92.210251 97.133560,93.629036 97.137032,95.436569 
	C97.040901,96.881783 97.022842,97.938248 96.754135,99.017349 
	C95.949188,99.351692 95.394875,99.663422 94.840569,99.975151 
M60.442490,98.761742 
	C60.499866,98.966553 60.557240,99.171356 60.239994,99.922188 
	C61.220757,100.571091 62.393917,101.954491 63.152637,101.755745 
	C71.083099,99.678383 79.026703,97.586105 86.799026,94.995064 
	C91.310341,93.491150 93.466469,89.853073 93.016609,84.108444 
	C94.255241,75.123962 85.386612,75.316635 80.870476,71.313286 
	C96.329483,66.454346 99.807396,62.747089 96.896812,53.798851 
	C88.571838,56.299023 80.230568,58.828506 71.873604,61.305031 
	C66.555336,62.881069 64.382042,66.375099 65.058388,72.582703 
	C66.674088,75.015457 67.996651,77.730698 69.990158,79.799377 
	C71.880981,81.761497 74.474571,83.046379 76.082100,84.963753 
	C73.730240,85.640213 71.367279,86.280609 69.028732,87.000313 
	C63.417198,88.727325 61.065861,91.892265 60.442490,98.761742 
z"/>
<path fill="#DB1515" opacity="1.000000" stroke="none" 
	d="
M121.005096,71.469582 
	C121.005096,71.469582 121.010201,71.390358 121.013351,71.418900 
	C122.269264,68.400970 123.522034,65.354500 125.000954,61.758076 
	C125.955833,62.244938 127.731865,63.222958 129.567245,64.072823 
	C135.298203,66.726524 137.181824,65.366608 136.994980,58.338463 
	C139.338058,61.697281 142.711914,65.217529 143.810043,69.343468 
	C148.465652,86.835670 147.087631,103.563950 135.412415,118.401825 
	C134.495712,119.566856 133.827194,120.927185 132.981995,122.533890 
	C132.586090,123.012390 132.251541,123.153748 131.188354,123.244461 
	C129.215561,123.232101 127.971367,123.270393 126.727173,123.308670 
	C121.362137,123.778374 115.997108,124.248070 110.329735,124.197716 
	C110.476463,118.202179 110.925537,112.726692 111.347717,107.579124 
	C115.452179,106.884453 119.233238,106.506035 122.858932,105.542786 
	C125.457840,104.852333 128.388107,103.857780 127.927383,99.605179 
	C127.839027,96.347626 127.660675,93.526337 127.278931,90.578850 
	C126.642067,90.593941 126.208588,90.735222 125.402580,90.850426 
	C123.355782,91.268570 121.681519,91.712776 119.713646,92.091812 
	C119.082428,92.219078 118.744827,92.411537 118.088242,92.673332 
	C114.870949,92.816711 111.972641,92.890755 109.023804,92.576721 
	C109.051239,91.183052 109.129196,90.177452 109.623245,89.201866 
	C113.429764,88.712456 116.998283,88.686966 120.164406,87.545403 
	C123.909096,86.195244 127.306404,83.881630 131.105591,81.765289 
	C131.537659,80.701401 131.718430,79.857864 132.019806,78.609344 
	C131.896027,70.329590 131.435638,69.979538 123.899017,71.551872 
	C122.980095,71.743584 121.971916,71.507446 121.005096,71.469582 
z"/>
<path fill="#D0211E" opacity="1.000000" stroke="none" 
	d="
M59.637558,126.535614 
	C55.163643,122.010590 50.097801,118.173866 47.013458,113.126328 
	C38.875309,99.808220 37.166519,85.373543 43.025322,70.228729 
	C44.045998,70.106728 44.331429,70.142441 44.616863,70.178162 
	C42.139946,78.885063 41.584229,87.679619 42.635624,96.704941 
	C44.207214,110.195717 54.507614,117.347015 68.807198,114.418968 
	C71.850868,113.795731 74.866776,113.036880 78.920708,112.104790 
	C76.451378,117.304649 74.309937,121.814034 71.990891,126.634583 
	C67.930214,123.744102 63.895096,127.133263 59.637558,126.535614 
z"/>
<path fill="#DC1717" opacity="1.000000" stroke="none" 
	d="
M44.801704,69.893188 
	C44.331429,70.142441 44.045998,70.106728 43.330757,70.022644 
	C44.404198,60.265224 50.039829,52.945026 56.994625,46.624538 
	C69.990623,34.813820 85.306656,30.716818 102.964874,34.057983 
	C90.957008,38.744423 78.630371,43.445332 66.130043,47.627014 
	C55.104141,51.315472 48.472923,58.856430 44.801704,69.893188 
z"/>
<path fill="#D41C1A" opacity="1.000000" stroke="none" 
	d="
M100.320923,124.949951 
	C95.693230,127.945442 92.113403,124.311417 87.831223,122.938812 
	C86.637901,119.069336 85.775360,115.289162 84.955437,111.695778 
	C88.848396,109.508179 92.563011,107.420807 96.809204,105.152122 
	C97.545067,104.988510 97.749336,105.006210 98.029037,105.340820 
	C98.201599,106.079758 98.298737,106.501793 98.297394,107.352356 
	C99.073677,112.974258 99.948425,118.167641 100.773422,123.467377 
	C100.723663,123.573746 100.874168,123.754036 100.748947,123.939308 
	C100.630455,124.439209 100.529518,124.714333 100.320923,124.949951 
z"/>
<path fill="#C0403D" opacity="1.000000" stroke="none" 
	d="
M83.227325,123.786591 
	C81.723679,125.558922 80.194809,126.876945 78.297035,128.167969 
	C78.900078,124.088524 79.872032,120.036072 80.843987,115.983620 
	C81.352158,116.003998 81.860329,116.024376 82.368507,116.044754 
	C82.646378,118.473930 82.924248,120.903114 83.227325,123.786591 
z"/>
<path fill="#D95856" opacity="1.000000" stroke="none" 
	d="
M97.953613,105.023911 
	C97.749336,105.006210 97.545067,104.988510 97.042419,104.895935 
	C96.280846,103.404518 95.817650,101.987976 95.097511,100.273293 
	C95.394875,99.663422 95.949188,99.351692 96.974655,99.331894 
	C97.615074,101.423851 97.784340,103.223877 97.953613,105.023911 
z"/>
<path fill="#DB1515" opacity="1.000000" stroke="none" 
	d="
M136.182373,55.400253 
	C136.496719,55.671692 136.728973,56.272858 136.892410,57.207344 
	C136.582474,56.937103 136.341385,56.333538 136.182373,55.400253 
z"/>
<path fill="#FAF4F4" opacity="1.000000" stroke="none" 
	d="
M98.029037,105.340820 
	C97.784340,103.223877 97.615074,101.423851 97.225296,99.309265 
	C97.022842,97.938248 97.040901,96.881783 97.536209,95.440323 
	C98.995087,95.108086 99.994576,95.059639 100.955566,95.229301 
	C109.919937,96.812004 118.877701,98.432152 127.837379,100.041443 
	C128.388107,103.857780 125.457840,104.852333 122.858932,105.542786 
	C119.233238,106.506035 115.452179,106.884453 111.347717,107.579124 
	C110.925537,112.726692 110.476463,118.202179 109.892799,124.032196 
	C106.960228,124.845230 104.162254,125.303749 101.202774,125.090660 
	C100.985580,124.197388 100.929878,123.975716 100.874168,123.754036 
	C100.874168,123.754036 100.723663,123.573746 100.858078,123.002289 
	C101.291367,119.701973 101.677269,116.979103 101.865883,114.242638 
	C102.075432,111.202316 102.811150,107.812668 98.395866,106.923820 
	C98.298737,106.501793 98.201599,106.079758 98.029037,105.340820 
z"/>
<path fill="#EEEEEE" opacity="1.000000" stroke="none" 
	d="
M72.875687,133.060516 
	C73.546402,133.434677 74.217110,133.808838 74.887825,134.182999 
	C75.514305,129.819839 78.587540,132.575867 80.592125,132.222519 
	C80.480446,134.222809 80.368759,136.223114 80.078461,138.780472 
	C79.899841,139.337540 80.000885,139.784256 79.686096,139.822601 
	C79.191109,140.239334 79.010910,140.617737 78.572296,141.050781 
	C78.088470,141.525757 77.863075,141.946106 77.637672,142.366455 
	C78.103767,142.209839 78.569870,142.053223 79.244461,141.917114 
	C79.452957,141.937622 79.861191,141.843246 80.126801,141.983093 
	C80.617043,142.450272 80.841667,142.777618 81.066292,143.104950 
	C78.986374,145.307022 76.880142,146.007523 74.361389,142.738998 
	C73.455940,140.507843 72.901817,138.753952 72.313538,136.652985 
	C72.478142,135.224106 72.676918,134.142319 72.875687,133.060516 
M77.826492,135.463867 
	C77.822044,135.813995 77.813843,136.164322 77.831390,136.513351 
	C77.831909,136.523712 78.102905,136.520477 78.247803,136.523575 
	C78.253624,136.172760 78.259445,135.821960 77.826492,135.463867 
z"/>
<path fill="#DCDCDC" opacity="1.000000" stroke="none" 
	d="
M122.333160,139.103088 
	C121.776375,139.578781 121.219582,140.054459 120.387589,140.308655 
	C119.970207,139.691193 119.828041,139.295212 119.685883,138.899231 
	C119.661819,136.143524 119.505547,133.377487 119.719292,130.640350 
	C119.764992,130.055283 121.153458,129.575073 122.150192,129.743286 
	C122.909653,130.765656 123.442238,131.091278 123.974823,131.416901 
	C124.165421,130.902374 124.356018,130.387848 124.546616,129.873322 
	C125.052719,129.157257 125.558823,128.441193 126.786903,126.703621 
	C127.463562,131.481918 128.149338,135.091965 128.421921,138.732910 
	C128.574265,140.767944 128.265228,140.791077 125.976852,139.102081 
	C125.954742,137.490311 125.892258,136.585342 125.829781,135.680359 
	C125.493683,135.505707 125.157585,135.331055 124.821487,135.156387 
	C123.992050,136.471954 123.162605,137.787521 122.333160,139.103088 
z"/>
<path fill="#303030" opacity="1.000000" stroke="none" 
	d="
M104.040543,129.538177 
	C106.386513,129.338226 108.732491,129.138290 111.488304,129.246613 
	C112.314171,130.679001 111.066689,133.478180 114.212616,131.853363 
	C119.379517,135.991592 111.499611,134.192108 111.764351,136.632355 
	C110.869026,136.996582 110.401085,137.022263 109.933136,137.047943 
	C109.933136,137.047928 109.977608,136.994568 109.904671,136.676880 
	C108.815994,135.940277 107.800255,135.521378 106.401833,135.038879 
	C100.726662,134.848892 103.965210,131.617966 104.040543,129.538177 
z"/>
<path fill="#E9E9E9" opacity="1.000000" stroke="none" 
	d="
M82.013054,139.926300 
	C82.994286,137.049789 83.975510,134.173264 85.147301,130.738098 
	C90.188766,133.328812 88.565651,138.268875 89.188637,143.054733 
	C86.815414,143.054733 84.866463,143.054733 82.470383,142.580978 
	C82.019859,141.380249 82.016457,140.653275 82.013054,139.926300 
z"/>
<path fill="#C0C0C0" opacity="1.000000" stroke="none" 
	d="
M94.280243,136.530487 
	C94.336281,138.561188 94.336281,140.193893 94.336281,141.826599 
	C94.142036,141.896729 93.947792,141.966843 93.753548,142.036957 
	C92.560028,138.434082 91.366508,134.831223 89.958641,130.581284 
	C91.477112,130.351074 93.476784,130.047913 95.430771,129.751663 
	C94.940231,132.345825 94.582222,134.239166 94.280243,136.530487 
z"/>
<path fill="#424242" opacity="1.000000" stroke="none" 
	d="
M109.887711,137.437225 
	C110.401085,137.022263 110.869026,136.996582 111.688980,136.972885 
	C114.315285,137.636871 116.589577,138.298874 119.274872,138.930054 
	C119.828041,139.295212 119.970207,139.691193 120.095940,140.403107 
	C115.904121,144.686142 111.332260,143.394348 109.887711,137.437225 
z"/>
<path fill="#C2C2C2" opacity="1.000000" stroke="none" 
	d="
M72.739685,132.719955 
	C72.676918,134.142319 72.478142,135.224106 72.107574,136.767410 
	C71.935783,137.228912 71.487526,137.084854 71.502777,136.605042 
	C71.010460,135.753708 70.502884,135.382172 69.995308,135.010651 
	C69.945076,136.028534 69.894844,137.046432 69.802582,138.482727 
	C69.836922,139.456467 69.913284,140.011795 70.259308,140.812531 
	C70.350372,141.734055 70.171776,142.410156 70.019615,143.384369 
	C70.026306,144.082657 70.006561,144.482834 69.986816,144.883011 
	C69.435722,144.730484 68.884621,144.577957 68.177643,143.764313 
	C67.991577,142.027924 67.961388,140.952698 67.920601,139.541473 
	C67.598389,138.144226 67.286774,137.082977 67.021942,135.704010 
	C67.067276,134.960342 67.065834,134.534363 67.064392,134.108398 
	C68.910820,133.532059 70.757256,132.955734 72.739685,132.719955 
z"/>
<path fill="#C2C2C2" opacity="1.000000" stroke="none" 
	d="
M65.984070,144.871155 
	C64.165733,145.048752 62.347393,145.226349 61.440933,145.314896 
	C61.127518,142.287674 60.891644,140.009399 60.781441,137.050323 
	C60.830925,135.843048 60.754742,135.316574 60.678558,134.790085 
	C60.678558,134.790085 60.341736,134.532791 60.766544,134.582947 
	C61.442726,134.747452 61.694099,134.861832 61.906967,135.257599 
	C62.288013,136.108170 62.707561,136.677353 63.338730,137.503265 
	C64.422920,138.733688 65.295494,139.707397 66.118584,141.098709 
	C66.040764,142.634598 66.012413,143.752884 65.984070,144.871155 
z"/>
<path fill="#E1E1E1" opacity="1.000000" stroke="none" 
	d="
M103.605385,129.625961 
	C103.965210,131.617966 100.726662,134.848892 106.428009,135.343018 
	C106.852730,136.117386 106.868584,136.524017 106.884438,136.930664 
	C105.489510,138.488083 104.094574,140.045517 102.354782,141.987976 
	C101.875740,138.410522 101.313202,134.702454 100.987083,130.973709 
	C100.956154,130.620087 102.407204,130.136826 103.605385,129.625961 
z"/>
<path fill="#ECECEC" opacity="1.000000" stroke="none" 
	d="
M71.487526,137.084854 
	C71.487526,137.084854 71.935783,137.228912 72.141739,137.114502 
	C72.901817,138.753952 73.455940,140.507843 74.015579,142.661560 
	C73.562973,143.634659 73.104843,144.207947 72.288147,144.453522 
	C71.284111,143.779297 70.638641,143.432785 69.993179,143.086273 
	C70.171776,142.410156 70.350372,141.734055 70.720352,141.003906 
	C71.134384,140.098785 71.357040,139.247696 71.630737,138.063446 
	C71.617035,137.515167 71.552284,137.300018 71.487526,137.084854 
z"/>
<path fill="#424242" opacity="1.000000" stroke="none" 
	d="
M114.223328,131.523468 
	C111.066689,133.478180 112.314171,130.679001 111.857643,129.181610 
	C112.683418,128.670334 113.549698,128.532333 114.415970,128.394333 
	C114.355331,129.327408 114.294685,130.260483 114.223328,131.523468 
z"/>
<path fill="#424242" opacity="1.000000" stroke="none" 
	d="
M122.682190,139.086731 
	C123.162605,137.787521 123.992050,136.471954 124.821487,135.156387 
	C125.157585,135.331055 125.493683,135.505707 125.829781,135.680359 
	C125.892258,136.585342 125.954742,137.490311 125.913116,138.730927 
	C124.883072,139.067825 123.957146,139.069092 122.682190,139.086731 
z"/>
<path fill="#E1E1E1" opacity="1.000000" stroke="none" 
	d="
M61.945469,134.976196 
	C61.694099,134.861832 61.442726,134.747452 60.854561,134.390152 
	C61.742188,133.764771 62.966614,133.382324 64.572754,133.426346 
	C64.957237,134.558640 64.960007,135.264481 64.742218,135.961517 
	C64.521660,135.952713 64.096855,135.832565 63.955902,135.536835 
	C63.191788,135.152786 62.568630,135.064484 61.945469,134.976196 
z"/>
<path fill="#B2B2B2" opacity="1.000000" stroke="none" 
	d="
M66.288109,144.867325 
	C66.012413,143.752884 66.040764,142.634598 66.370529,141.126602 
	C67.091705,140.450409 67.511452,140.163925 67.931198,139.877457 
	C67.961388,140.952698 67.991577,142.027924 68.027092,143.506226 
	C67.552330,144.227371 67.072243,144.545425 66.288109,144.867325 
z"/>
<path fill="#BDBDBD" opacity="1.000000" stroke="none" 
	d="
M81.914703,139.631241 
	C82.016457,140.653275 82.019859,141.380249 82.033417,142.470596 
	C81.880821,142.879578 81.718071,142.925201 81.310806,143.037888 
	C80.841667,142.777618 80.617043,142.450272 80.171677,141.642258 
	C79.967583,140.702469 79.984230,140.243362 80.000885,139.784256 
	C80.000885,139.784256 79.899841,139.337540 79.977516,139.122116 
	C80.642250,139.049850 81.229301,139.193024 81.914703,139.631241 
z"/>
<path fill="#9E0203" opacity="1.000000" stroke="none" 
	d="
M126.916183,123.551834 
	C127.971367,123.270393 129.215561,123.232101 130.921021,123.299896 
	C129.956589,123.535652 128.530899,123.665321 126.916183,123.551834 
z"/>
<path fill="#424242" opacity="1.000000" stroke="none" 
	d="
M107.269852,136.945511 
	C106.868584,136.524017 106.852730,136.117386 106.810684,135.406616 
	C107.800255,135.521378 108.815994,135.940277 109.897629,136.710846 
	C109.194107,137.028458 108.424690,136.994400 107.269852,136.945511 
z"/>
<path fill="#818181" opacity="1.000000" stroke="none" 
	d="
M64.962776,135.970306 
	C64.960007,135.264481 64.957237,134.558640 64.921127,133.499939 
	C65.420784,133.400833 65.953796,133.654572 66.775597,134.008362 
	C67.065834,134.534363 67.067276,134.960342 66.685593,135.734756 
	C65.855896,136.045578 65.409340,136.007935 64.962776,135.970306 
z"/>
<path fill="#424242" opacity="1.000000" stroke="none" 
	d="
M124.278252,129.866760 
	C124.356018,130.387848 124.165421,130.902374 123.974823,131.416901 
	C123.442238,131.091278 122.909653,130.765656 122.398987,130.155121 
	C122.950569,129.866867 123.480225,129.863525 124.278252,129.866760 
z"/>
<path fill="#B2B2B2" opacity="1.000000" stroke="none" 
	d="
M70.019615,143.384369 
	C70.638641,143.432785 71.284111,143.779297 71.999496,144.460388 
	C71.606766,144.885468 71.144112,144.975922 70.334137,144.974701 
	C70.006561,144.482834 70.026306,144.082657 70.019615,143.384369 
z"/>
<path fill="#E1E1E1" opacity="1.000000" stroke="none" 
	d="
M60.376553,134.926056 
	C60.754742,135.316574 60.830925,135.843048 60.932060,136.768341 
	C60.662861,136.465424 60.368702,135.763733 60.376553,134.926056 
z"/>
<path fill="#E6D0D0" opacity="1.000000" stroke="none" 
	d="
M100.748947,123.939308 
	C100.929878,123.975716 100.985580,124.197388 101.001846,124.759796 
	C100.962410,125.100548 100.615700,125.132225 100.468307,125.041092 
	C100.529518,124.714333 100.630455,124.439209 100.748947,123.939308 
z"/>
<path fill="#E7D9DA" opacity="1.000000" stroke="none" 
	d="
M65.255974,71.818100 
	C64.382042,66.375099 66.555336,62.881069 71.873604,61.305031 
	C80.230568,58.828506 88.571838,56.299023 96.896812,53.798851 
	C99.807396,62.747089 96.329483,66.454346 80.870476,71.313286 
	C85.386612,75.316635 94.255241,75.123962 92.572815,84.529701 
	C90.648033,84.368317 89.112320,83.894882 87.695175,83.184799 
	C80.199005,79.428711 72.732658,75.613083 65.255974,71.818100 
z"/>
<path fill="#BD9E9F" opacity="1.000000" stroke="none" 
	d="
M65.157181,72.200401 
	C72.732658,75.613083 80.199005,79.428711 87.695175,83.184799 
	C89.112320,83.894882 90.648033,84.368317 92.505341,84.932510 
	C93.466469,89.853073 91.310341,93.491150 86.799026,94.995064 
	C79.026703,97.586105 71.083099,99.678383 63.152637,101.755745 
	C62.393917,101.954491 61.220757,100.571091 60.861080,99.582397 
	C69.424812,96.518562 77.374023,93.812683 85.269028,90.956917 
	C85.450562,90.891251 85.019920,89.133148 84.592743,87.944290 
	C81.793472,86.692429 79.276291,85.660759 76.759117,84.629082 
	C74.474571,83.046379 71.880981,81.761497 69.990158,79.799377 
	C67.996651,77.730698 66.674088,75.015457 65.157181,72.200401 
z"/>
<path fill="#FDF9F9" opacity="1.000000" stroke="none" 
	d="
M130.854294,81.985641 
	C127.306404,83.881630 123.909096,86.195244 120.164406,87.545403 
	C116.998283,88.686966 113.429764,88.712456 109.285423,89.143219 
	C107.680267,89.364845 106.829010,89.675125 105.534264,90.006699 
	C102.439194,90.002159 99.787613,89.976334 97.136040,89.950508 
	C97.043983,88.265358 96.951935,86.580208 96.907806,84.068489 
	C96.980110,81.831604 97.004486,80.421295 97.460442,79.012466 
	C108.879440,80.004524 119.866867,80.995087 130.854294,81.985641 
z"/>
<path fill="#E6D0D0" opacity="1.000000" stroke="none" 
	d="
M97.053268,90.370987 
	C99.787613,89.976334 102.439194,90.002159 105.542763,90.359383 
	C107.021286,91.448784 108.047806,92.206787 109.074333,92.964798 
	C111.972641,92.890755 114.870949,92.816711 118.382309,92.731918 
	C119.332664,92.533096 119.669960,92.345039 120.007248,92.156982 
	C121.681519,91.712776 123.355782,91.268570 125.835991,90.870407 
	C126.922066,90.845993 127.202187,90.775513 127.482315,90.705040 
	C127.660675,93.526337 127.839027,96.347626 127.927383,99.605179 
	C118.877701,98.432152 109.919937,96.812004 100.955566,95.229301 
	C99.994576,95.059639 98.995087,95.108086 97.614273,95.051590 
	C97.133560,93.629036 97.052025,92.210251 97.053268,90.370987 
M123.950401,96.289665 
	C123.167679,96.414970 122.384964,96.540276 121.602242,96.665581 
	C121.738243,97.081573 121.874245,97.497566 122.010246,97.913559 
	C122.800262,97.512878 123.590286,97.112198 123.950401,96.289665 
M117.735252,96.500343 
	C117.987099,96.261368 118.241364,96.024643 118.477554,95.771088 
	C118.483795,95.764381 118.293320,95.574448 118.194572,95.469971 
	C117.942513,95.709267 117.690453,95.948563 117.735252,96.500343 
z"/>
<path fill="#DCC4C5" opacity="1.000000" stroke="none" 
	d="
M120.591942,71.540970 
	C121.971916,71.507446 122.980095,71.743584 123.899017,71.551872 
	C131.435638,69.979538 131.896027,70.329590 131.569504,78.607979 
	C124.779297,78.644539 118.543663,78.446114 112.347130,77.844788 
	C108.844902,77.504929 105.406944,76.502724 101.940041,75.798859 
	C108.019623,74.403351 114.099205,73.007851 120.591942,71.540970 
z"/>
<path fill="#FAF5F5" opacity="1.000000" stroke="none" 
	d="
M76.420609,84.796417 
	C79.276291,85.660759 81.793472,86.692429 84.520554,88.276199 
	C76.710342,91.940742 68.690224,95.053185 60.670101,98.165634 
	C61.065861,91.892265 63.417198,88.727325 69.028732,87.000313 
	C71.367279,86.280609 73.730240,85.640213 76.420609,84.796417 
z"/>
<path fill="#F3EBEC" opacity="1.000000" stroke="none" 
	d="
M101.584366,75.745392 
	C105.406944,76.502724 108.844902,77.504929 112.347130,77.844788 
	C118.543663,78.446114 124.779297,78.644539 131.448883,79.012955 
	C131.718430,79.857864 131.537659,80.701401 131.105591,81.765289 
	C119.866867,80.995087 108.879440,80.004524 97.343918,78.674164 
	C96.814346,77.859726 96.832870,77.385071 96.851395,76.910423 
	C97.033783,76.873497 97.216171,76.836563 97.904160,76.769814 
	C98.643127,76.517044 98.876495,76.294083 99.109863,76.071129 
	C99.816139,75.944725 100.522415,75.818329 101.584366,75.745392 
z"/>
<path fill="#E1D5D7" opacity="1.000000" stroke="none" 
	d="
M60.556297,98.463684 
	C68.690224,95.053185 76.710342,91.940742 84.802650,88.496384 
	C85.019920,89.133148 85.450562,90.891251 85.269028,90.956917 
	C77.374023,93.812683 69.424812,96.518562 61.048393,99.309387 
	C60.557240,99.171356 60.499866,98.966553 60.556297,98.463684 
z"/>
<path fill="#D95856" opacity="1.000000" stroke="none" 
	d="
M96.514374,76.960220 
	C96.832870,77.385071 96.814346,77.859726 96.912338,78.672676 
	C97.004486,80.421295 96.980110,81.831604 96.841736,83.651306 
	C96.544273,81.710464 96.360817,79.360237 96.514374,76.960220 
z"/>
<path fill="#D95856" opacity="1.000000" stroke="none" 
	d="
M98.871140,76.035812 
	C98.876495,76.294083 98.643127,76.517044 98.162720,76.664612 
	C98.042641,76.256706 98.281555,76.060463 98.871140,76.035812 
z"/>
<path fill="#DFAEAF" opacity="1.000000" stroke="none" 
	d="
M109.023804,92.576721 
	C108.047806,92.206787 107.021286,91.448784 105.986259,90.338089 
	C106.829010,89.675125 107.680267,89.364845 108.869339,89.113205 
	C109.129196,90.177452 109.051239,91.183052 109.023804,92.576721 
z"/>
<path fill="#DFAEAF" opacity="1.000000" stroke="none" 
	d="
M127.278931,90.578850 
	C127.202187,90.775513 126.922066,90.845993 126.208527,90.896484 
	C126.208588,90.735222 126.642067,90.593941 127.278931,90.578850 
z"/>
<path fill="#DFAEAF" opacity="1.000000" stroke="none" 
	d="
M119.713638,92.091805 
	C119.669960,92.345039 119.332664,92.533096 118.701294,92.662575 
	C118.744827,92.411537 119.082428,92.219078 119.713638,92.091805 
z"/>
<path fill="#E6D0D0" opacity="1.000000" stroke="none" 
	d="
M98.297394,107.352356 
	C102.811150,107.812668 102.075432,111.202316 101.865883,114.242638 
	C101.677269,116.979103 101.291367,119.701973 100.907837,122.895927 
	C99.948425,118.167641 99.073677,112.974258 98.297394,107.352356 
z"/>
<path fill="#ECECEC" opacity="1.000000" stroke="none" 
	d="
M79.035965,141.896622 
	C78.569870,142.053223 78.103767,142.209839 77.637672,142.366455 
	C77.863075,141.946106 78.088470,141.525757 78.637085,141.272827 
	C78.960304,141.440247 79.035965,141.896622 79.035965,141.896622 
z"/>
<path fill="#DDDDDD" opacity="1.000000" stroke="none" 
	d="
M78.045883,135.467499 
	C78.259445,135.821960 78.253624,136.172760 78.247803,136.523575 
	C78.102905,136.520477 77.831909,136.523712 77.831390,136.513351 
	C77.813843,136.164322 77.822044,135.813995 78.045883,135.467499 
z"/>
<path fill="#808080" opacity="1.000000" stroke="none" 
	d="
M79.244461,141.917114 
	C79.035965,141.896622 78.960304,141.440247 78.895508,141.218201 
	C79.010910,140.617737 79.191109,140.239334 79.686096,139.822601 
	C79.984230,140.243362 79.967583,140.702469 79.906059,141.502411 
	C79.861191,141.843246 79.452957,141.937622 79.244461,141.917114 
z"/>
<path fill="#4B4B4B" opacity="1.000000" stroke="none" 
	d="
M64.742218,135.961517 
	C65.409340,136.007935 65.855896,136.045578 66.638809,136.052460 
	C67.286774,137.082977 67.598389,138.144226 67.920601,139.541473 
	C67.511452,140.163925 67.091705,140.450409 66.420013,140.708984 
	C65.295494,139.707397 64.422920,138.733688 63.491486,137.349457 
	C63.654026,136.570129 63.875443,136.201340 64.096855,135.832565 
	C64.096855,135.832565 64.521660,135.952713 64.742218,135.961517 
z"/>
<path fill="#121212" opacity="1.000000" stroke="none" 
	d="
M71.502777,136.605042 
	C71.552284,137.300018 71.617035,137.515167 71.203636,137.945526 
	C70.431862,138.128586 70.138237,138.096451 69.844612,138.064316 
	C69.894844,137.046432 69.945076,136.028534 69.995308,135.010651 
	C70.502884,135.382172 71.010460,135.753708 71.502777,136.605042 
z"/>
<path fill="#393939" opacity="1.000000" stroke="none" 
	d="
M69.802582,138.482727 
	C70.138237,138.096451 70.431862,138.128586 71.152596,138.278656 
	C71.357040,139.247696 71.134384,140.098785 70.450684,140.758514 
	C69.913284,140.011795 69.836922,139.456467 69.802582,138.482727 
z"/>
<path fill="#2E2E2E" opacity="1.000000" stroke="none" 
	d="
M63.955902,135.536835 
	C63.875443,136.201340 63.654026,136.570129 63.279861,137.092712 
	C62.707561,136.677353 62.288013,136.108170 61.906967,135.257599 
	C62.568630,135.064484 63.191788,135.152786 63.955902,135.536835 
z"/>
<path fill="#E6D5D7" opacity="1.000000" stroke="none" 
	d="
M124.165359,96.500595 
	C123.590286,97.112198 122.800262,97.512878 122.010246,97.913559 
	C121.874245,97.497566 121.738243,97.081573 121.602242,96.665581 
	C122.384964,96.540276 123.167679,96.414970 124.165359,96.500595 
z"/>
<path fill="#E6D5D7" opacity="1.000000" stroke="none" 
	d="
M117.586823,96.344101 
	C117.690453,95.948563 117.942513,95.709267 118.194572,95.469971 
	C118.293320,95.574448 118.483795,95.764381 118.477554,95.771088 
	C118.241364,96.024643 117.987099,96.261368 117.586823,96.344101 
z"/>
</svg>